<svg xmlns="http://www.w3.org/2000/svg" width="312" height="485" viewBox="0 0 312 485"><path fill="#fff" d="M202.23 101.7l21.95 7.24V55H161zM144 225l1.76 13.68a19.7 19.7 0 0 0 7.61 13.17l22.42 17.03-.18-1.35a49.2 49.2 0 0 0-18.96-32.88z"/><path fill="#fff" d="M86.7 335.57l60.99 44.01-7.61-59.31-26.45-40.01 41.23 31.48 13.04 101.55 55.02 39.69V423.3l-30.58-23.31-14.02-109.19-36.73-27.92a29.53 29.53 0 0 1-11.42-19.76l-4.06-31.56-12.87-29.65 59.99 45.78 11.67-10.51 2.74 21.5 16.7 130.95 18.58 14.16V112.7l-30.93-10.2-44.81-50.77A364.58 364.58 0 0 0 95.22 3.34l15.02 29.02a317.34 317.34 0 0 1 31.42 94.99L75.76 0a590.07 590.07 0 0 0-6.81 131.96l.68 11.26 44.49-23.4a244.7 244.7 0 0 0-60.48 107.26L52 233.25l51.43 39.24z"/><path fill="#fff" d="M223.17 473.24l-69.77-50.33-2.71-21.09-81.74-58.98 16.8-63.38-51.42-39.24 20.83-78.6-1.8-29.78A589.35 589.35 0 0 1 54.67 43H0v441.34h223.17zM285 224.87a56.4 56.4 0 0 0-13.7 15.2 56.46 56.46 0 0 0-7.98 22.39L261 280.5l10.3-7.83 25.5-19.38a26.92 26.92 0 0 0 10.34-17.89l3.91-30.4z"/></svg>