<svg xmlns="http://www.w3.org/2000/svg" width="51" height="79" viewBox="0 0 51 79"><path fill="#fff" d="M32.65 16.53l3.55 1.17V9H26zM23 37l.28 2.21a3.2 3.2 0 0 0 1.23 2.12l3.62 2.75-.03-.22a7.9 7.9 0 0 0-3.06-5.3z"/><path fill="#fff" d="M13.6 54.12l9.84 7.1-1.22-9.56-4.27-6.46 6.65 5.08 2.11 16.38 8.88 6.4v-4.79l-4.94-3.76-2.26-17.61-5.93-4.5a4.73 4.73 0 0 1-1.84-3.19l-.66-5.09-2.08-4.78 9.69 7.38 1.88-1.69.44 3.47 2.7 21.12 3 2.28V18.18l-5-1.65-7.23-8.19a58.96 58.96 0 0 0-8.38-7.8l2.42 4.68c2.49 4.8 4.2 9.98 5.07 15.32L11.84 0a94.2 94.2 0 0 0-1.1 21.28l.11 1.82 7.18-3.77a39.45 39.45 0 0 0-9.77 17.3l-.26.99 8.3 6.33z"/><path fill="#fff" d="M36.02 76.39l-11.26-8.11-.44-3.41-13.19-9.51 2.71-10.22-8.3-6.33L8.9 26.13l-.29-4.8A95.2 95.2 0 0 1 8.82 7H0v71.18h36.02zM45.87 36.21a9.07 9.07 0 0 0-3.5 6.06L42 45.18l1.66-1.27 4.12-3.12a4.4 4.4 0 0 0 1.67-2.89l.63-4.9z"/></svg>