<?xml version="1.0" encoding="UTF-8"?><!DOCTYPE svg PUBLIC "-//W3C//DTD SVG 1.1//EN" "http://www.w3.org/Graphics/SVG/1.1/DTD/svg11.dtd"><svg xmlns="http://www.w3.org/2000/svg"><symbol id="icon-facebook" viewBox="0 0 10 19">
    <title>
        facebook
    </title>
    <path d="M9.766.157v2.946H8.014c-.64 0-1.071.134-1.295.402-.223.268-.335.67-.335 1.205v2.11h3.27l-.435 3.303H6.384v8.471H2.97v-8.47H.123V6.82H2.97V4.387c0-1.384.387-2.457 1.161-3.22C4.904.404 5.934.023 7.222.023c1.093 0 1.941.045 2.544.134z" fill-rule="evenodd"/>
</symbol><symbol id="icon-logo-head" viewBox="0 0 122 213.2">
    <g>
        <path d="M43.2 105.9l.8 6.4c.3 2.5 1.6 4.7 3.6 6.2l10.6 8-.1-.6c-.8-6.1-4-11.7-8.9-15.5l-6-4.5z"/>
        <path d="M16.3 158L45 178.7l-3.6-27.9L29 131.9l19.4 14.8 6.1 47.8 25.9 18.7v-14l-14.4-11-6.6-51.4-17.3-13.1c-3-2.3-4.9-5.6-5.4-9.3l-1.9-14.9-6.1-14L57 107.1l5.5-4.9 1.3 10.1 7.9 61.6 8.8 6.7V53.1l-14.6-4.8-21.1-23.9C37.4 16 29.2 8.4 20.4 1.6l7.1 13.7c7.3 14 12.3 29.1 14.8 44.7L11.2 0C7.8 20.5 6.7 41.4 8 62.1l.3 5.3 21-11C15.6 70.5 5.8 87.9.8 106.9l-.8 2.9 24.2 18.5-7.9 29.7z"/>
        <path d="M109.8 105.8c-2.6 2-4.8 4.4-6.5 7.2-2 3.2-3.3 6.8-3.8 10.5l-1.1 8.5 4.9-3.7 12-9.1c2.7-2 4.4-5.1 4.9-8.4l1.8-14.3-12.2 9.3z"/>
    </g>
</symbol><symbol id="icon-logo" viewBox="0 0 51 79">
    <path d="M32.65 16.53l3.55 1.17V9H26zM23 37l.28 2.21a3.2 3.2 0 0 0 1.23 2.12l3.62 2.75-.03-.22a7.9 7.9 0 0 0-3.06-5.3z"/>
    <path d="M13.6 54.12l9.84 7.1-1.22-9.56-4.27-6.46 6.65 5.08 2.11 16.38 8.88 6.4v-4.79l-4.94-3.76-2.26-17.61-5.93-4.5a4.73 4.73 0 0 1-1.84-3.19l-.66-5.09-2.08-4.78 9.69 7.38 1.88-1.69.44 3.47 2.7 21.12 3 2.28V18.18l-5-1.65-7.23-8.19a58.96 58.96 0 0 0-8.38-7.8l2.42 4.68c2.49 4.8 4.2 9.98 5.07 15.32L11.84 0a94.2 94.2 0 0 0-1.1 21.28l.11 1.82 7.18-3.77a39.45 39.45 0 0 0-9.77 17.3l-.26.99 8.3 6.33z"/>
    <path d="M36.02 76.39l-11.26-8.11-.44-3.41-13.19-9.51 2.71-10.22-8.3-6.33L8.9 26.13l-.29-4.8A95.2 95.2 0 0 1 8.82 7H0v71.18h36.02zm9.85-40.18a9.07 9.07 0 0 0-3.5 6.06L42 45.18l1.66-1.27 4.12-3.12a4.4 4.4 0 0 0 1.67-2.89l.63-4.9z"/>
</symbol></svg>